:version 1.10
:name ASF
:units
  mass 1
  length 1
  angle deg
:documentation
  ASF file generated by Kaydara
:root
  axis xyz
  order  tx ty tz rx ry rz
  position 0 0 0
  orientation 0 0 0
:bonedata
  begin
    id 1
    name RightUpLegDummy
    direction -0.718183 -0.695806 0.00816078
    length 4.904
    axis 0 0 0 xyz
  end
  begin
    id 2
    name RightUpLeg
    direction 3.53989e-006 -0.995788 0.0916897
    length 17.4976
    axis -3.49089 -0.000906621 0.000287158 xyz
    dof rx ry rz
  end
  begin
    id 3
    name RightLeg
    direction 0.00371093 -0.995096 -0.0988418
    length 16.5821
    axis 3.68512 0.0193738 -0.131023 xyz
    dof rx ry rz
  end
  begin
    id 4
    name RightFoot
    direction 0.000791514 -0.46099 0.887405
    length 3.77069
    axis 4.84075e-005 -0.120479 -0.188788 xyz
    dof rx ry rz
  end
  begin
    id 5
    name RightToes
    direction 0.00124746 -0.014064 0.9999
    length 3.85082
    axis 0.00048216 0.542163 -0.142577 xyz
    dof rx ry rz
  end
  begin
    id 6
    name SpineDummy
    direction 8.36599e-015 1 5.97571e-016
    length 4.6813
    axis 0 0 0 xyz
  end
  begin
    id 7
    name Spine
    direction -4.63632e-008 0.999988 0.00495137
    length 10.1015
    axis -0.00138897 0.000121419 3.25764e-006 xyz
    dof rx ry rz
  end
  begin
    id 8
    name Spine1
    direction 0 0 0
    length 0
    axis -0.00138896 0.000121452 2.39764e-006 xyz
    dof rx ry rz
  end
  begin
    id 9
    name HEadDummy
    direction -3.91456e-008 0.999999 0.00127422
    length 3.43865
    axis -0.00138896 0.000121452 2.39764e-006 xyz
  end
  begin
    id 10
    name HEad
    direction -0.0222688 0.980941 0.193023
    length 5.12695
    axis -0.00138895 0.000121452 2.39764e-006 xyz
    dof rx ry rz
  end
  begin
    id 11
    name LeftShoulder1Dummy
    direction 0.998891 -0.0402508 -0.0244456
    length 3.5433
    axis -0.00138896 0.000121452 2.39764e-006 xyz
  end
  begin
    id 12
    name LeftShoulder1
    direction 0.99951 -0.000327743 0.0313091
    length 4.05031
    axis -0.00138896 0.000121452 2.39764e-006 xyz
    dof rx ry rz
  end
  begin
    id 13
    name LeftArm
    direction 0.998561 -0.00100054 -0.0536182
    length 10.3537
    axis -23.1894 0.134784 0.96751 xyz
    dof rx ry rz
  end
  begin
    id 14
    name LeftForeArm
    direction 0.998903 0.00866434 0.046012
    length 8.70632
    axis -9.91835 -0.06569 -0.177792 xyz
    dof rx ry rz
  end
  begin
    id 15
    name LeftHand
    direction 0.992938 -0.0411636 0.11126
    length 5.32135
    axis -0.00960227 -0.00340091 0.185174 xyz
    dof rx ry rz
  end
  begin
    id 16
    name RightShoulderDummy
    direction -0.998891 -0.0402509 -0.0244414
    length 3.5433
    axis -0.00138896 0.000121452 2.39764e-006 xyz
  end
  begin
    id 17
    name RightShoulder
    direction -0.99951 -0.000327827 0.0313133
    length 4.05031
    axis 0.215806 0.000203644 -0.00680151 xyz
    dof rx ry rz
  end
  begin
    id 18
    name RightArm
    direction -0.998573 -0.000999583 -0.053403
    length 10.3947
    axis -23.2009 -0.134239 -0.9641 xyz
    dof rx ry rz
  end
  begin
    id 19
    name RightForeArm
    direction -0.998898 0.00868026 0.0461306
    length 8.68355
    axis -9.92322 0.0658061 0.178869 xyz
    dof rx ry rz
  end
  begin
    id 20
    name RightHand
    direction -0.992843 -0.0414603 0.112003
    length 5.28593
    axis -0.00960634 0.00330671 -0.185226 xyz
    dof rx ry rz
  end
  begin
    id 21
    name LeftUpLegDummy
    direction 0.718183 -0.695806 0.00816078
    length 4.904
    axis 0 0 0 xyz
  end
  begin
    id 22
    name LeftUpLeg
    direction -6.8115e-006 -0.995793 0.0916336
    length 17.4976
    axis -3.48766 0.00143441 -0.000523914 xyz
    dof rx ry rz
  end
  begin
    id 23
    name LeftLeg
    direction -0.00601357 -0.995091 -0.0987824
    length 16.5821
    axis 3.68177 -0.00654038 -0.00028478 xyz
    dof rx ry rz
  end
  begin
    id 24
    name LeftFoot
    direction -0.00417578 -0.460984 0.887399
    length 3.77069
    axis 1.87232e-006 4.66002e-005 -8.1837e-006 xyz
    dof rx ry rz
  end
  begin
    id 25
    name LeftToes
    direction 0.00818058 -0.00485161 0.999955
    length 3.85048
    axis 1.06246e-005 4.65855e-005 -8.18502e-006 xyz
    dof rx ry rz
  end
:hierarchy
  begin
    root RightUpLegDummy SpineDummy LeftUpLegDummy
    RightUpLegDummy RightUpLeg
    RightUpLeg RightLeg
    RightLeg RightFoot
    RightFoot RightToes
    SpineDummy Spine
    Spine Spine1
    Spine1 HEadDummy LeftShoulder1Dummy RightShoulderDummy
    HEadDummy HEad
    LeftShoulder1Dummy LeftShoulder1
    LeftShoulder1 LeftArm
    LeftArm LeftForeArm
    LeftForeArm LeftHand
    RightShoulderDummy RightShoulder
    RightShoulder RightArm
    RightArm RightForeArm
    RightForeArm RightHand
    LeftUpLegDummy LeftUpLeg
    LeftUpLeg LeftLeg
    LeftLeg LeftFoot
    LeftFoot LeftToes
  end

:SAMPLES-PER-SECOND 24
:FULLY-SPECIFIED
:DEGREES
18
root  0.533625 40.761 9.17426 -170.545 50.7016 179.448
RightUpLeg  -7.04592 0.0838845 -10.1282
RightLeg  18.2472 -4.71079 -1.93967
RightFoot  -4.58676 -0.665814 10.7032
RightToes  -2.09809e-008 3.77894e-005 6.81332e-007
Spine  -7.6561 0.42649 -1.94813
Spine1  4.95346 0.387247 0.299648
HEad  -18.0787 30.8111 -10.7859
LeftShoulder1  6.65141 -12.5479 -35.4096
LeftArm  7.06619 16.9713 -28.855
LeftForeArm  162.437 -68.5729 -154.282
LeftHand  -0.228552 -0.49506 4.59616
RightShoulder  3.56919 6.32452 30.4108
RightArm  17.3726 -26.6686 36.7273
RightForeArm  156.117 74.9611 141.925
RightHand  -0.442464 8.99943 -3.94993
LeftUpLeg  -13.683 2.35289 5.35773
LeftLeg  11.8319 2.55298 0.967988
LeftFoot  1.24842 1.23442 -11.2315
LeftToes  1.24773e-006 1.46318e-008 1.32523e-009
19
root  0.581744 40.3176 9.56838 -171.706 49.9283 178.519
RightUpLeg  -7.35794 1.26758 -10.3273
RightLeg  20.2828 -4.65752 -2.11523
RightFoot  -6.85168 -0.498335 11.4835
RightToes  -2.09809e-008 3.77894e-005 6.81332e-007
Spine  -6.56835 0.06105 -0.940962
Spine1  4.50766 0.198502 -0.743694
HEad  -18.8286 30.5215 -11.5158
LeftShoulder1  6.74384 -12.6571 -35.6948
LeftArm  7.11899 14.2327 -25.8824
LeftForeArm  160.408 -69.3987 -152.946
LeftHand  -0.258721 -0.320533 5.33633
RightShoulder  3.51809 6.26684 30.0971
RightArm  16.6405 -24.9495 37.432
RightForeArm  153.186 75.4842 139.967
RightHand  -0.49079 8.54422 -4.46076
LeftUpLeg  -15.7154 0.912474 5.3629
LeftLeg  16.1412 3.0321 1.36915
LeftFoot  -1.39781 1.02229 -11.6262
LeftToes  1.24773e-006 1.46318e-008 1.32523e-009
20
root  0.516161 39.4911 10.1015 -172.97 49.2734 178.571
RightUpLeg  -7.63698 2.51603 -9.54972
RightLeg  24.2685 -5.60452 -2.98146
RightFoot  -12.6575 0.0425994 11.5546
RightToes  -2.09809e-008 3.77894e-005 6.81332e-007
Spine  -2.82108 0.182482 1.05632
Spine1  2.8339 0.504708 -2.17293
HEad  -20.994 28.882 -12.7676
LeftShoulder1  6.96472 -12.899 -36.4075
LeftArm  7.17828 10.1504 -23.2464
LeftForeArm  158.12 -70.3794 -151.234
LeftHand  -0.284875 -0.231178 5.95675
RightShoulder  3.4623 6.19416 29.7863
RightArm  14.9561 -23.1751 37.6693
RightForeArm  151.741 75.7074 139.044
RightHand  -0.665838 8.08538 -6.09136
LeftUpLeg  -18.8105 -1.92429 6.08456
LeftLeg  24.0073 5.24876 2.89583
LeftFoot  -6.03061 0.585041 -11.784
LeftToes  1.24773e-006 1.46318e-008 1.32523e-009
21
root  0.439398 38.6487 10.6623 -174.072 50.0381 179.658
RightUpLeg  -7.90421 3.76626 -7.85564
RightLeg  28.5235 -6.781 -4.20929
RightFoot  -18.188 0.464476 9.87292
RightToes  -2.09809e-008 3.77894e-005 6.81332e-007
Spine  0.345187 0.843252 4.07206
Spine1  3.49598 1.62029 -4.35405
HEad  -24.6952 26.9252 -14.4903
LeftShoulder1  7.30765 -13.2217 -37.5971
LeftArm  6.03885 5.59809 -21.3676
LeftForeArm  157.477 -71.3603 -149.592
LeftHand  -0.301568 -0.121462 6.41663
RightShoulder  3.3682 6.05122 29.3245
RightArm  12.9427 -20.0039 38.2475
RightForeArm  146.437 76.8409 134.197
RightHand  -0.845879 7.93966 -7.71072
LeftUpLeg  -20.4573 -3.38252 7.21116
LeftLeg  30.8443 7.66452 5.26549
LeftFoot  -9.80625 0.214693 -11.6115
LeftToes  1.24773e-006 1.46318e-008 1.32523e-009
22
root  0.522221 38.2676 11.1226 -174.594 52.134 -179.662
RightUpLeg  -8.41977 5.2033 -6.61563
RightLeg  30.5353 -7.09164 -4.73066
RightFoot  -20.4421 0.506011 8.08937
RightToes  -2.09809e-008 3.77894e-005 6.81332e-007
Spine  0.522819 1.72903 5.57804
Spine1  6.07611 2.86665 -5.32371
HEad  -27.531 26.2322 -15.5802
LeftShoulder1  7.6882 -13.5249 -38.9961
LeftArm  3.21111 5.10757 -21.3779
LeftForeArm  161.421 -71.4884 -149.973
LeftHand  -0.306136 -0.404555 6.22234
RightShoulder  3.35434 5.99658 29.3869
RightArm  11.4122 -17.6422 38.8194
RightForeArm  139.48 78.1752 126.929
RightHand  -0.795911 8.23274 -7.13682
LeftUpLeg  -20.1954 -2.88927 8.09454
LeftLeg  33.1396 9.24676 6.79402
LeftFoot  -11.3088 0.0691184 -12.1565
LeftToes  1.24773e-006 1.46318e-008 1.32523e-009
